<svg width="22" height="22" viewBox="0 0 22 22" fill="none" xmlns="http://www.w3.org/2000/svg">
<g id="arrow-short-left">
<g id="arrow-short-left_2">
<path id="vector (Stroke)" fill-rule="evenodd" clip-rule="evenodd" d="M17.8895 7.53021C18.1651 7.79134 18.1769 8.22648 17.9158 8.50212L12.83 13.8704C11.8357 14.9199 10.1643 14.9199 9.17 13.8704L4.08424 8.50212C3.82311 8.22648 3.83487 7.79134 4.11051 7.53021C4.38615 7.26907 4.82129 7.28083 5.08243 7.55648L10.1682 12.9248C10.6201 13.4018 11.3799 13.4018 11.8318 12.9248L16.9176 7.55647C17.1787 7.28083 17.6139 7.26907 17.8895 7.53021Z" fill="white"/>
<path id="vector (Stroke)_2" fill-rule="evenodd" clip-rule="evenodd" d="M17.8895 7.53021C18.1651 7.79134 18.1769 8.22648 17.9158 8.50212L12.83 13.8704C11.8357 14.9199 10.1643 14.9199 9.17 13.8704L8.86056 13.5438C8.59943 13.2681 8.61119 12.833 8.88683 12.5719C9.16247 12.3107 9.59761 12.3225 9.85874 12.5981L10.1682 12.9248C10.6201 13.4018 11.3799 13.4018 11.8318 12.9248L16.9176 7.55647C17.1787 7.28083 17.6139 7.26907 17.8895 7.53021Z" fill="#ABABAD"/>
</g>
</g>
</svg>
