<svg width="35" height="35" viewBox="0 0 35 35" fill="none" xmlns="http://www.w3.org/2000/svg">
<g id="Github Fill">
<path id="Vector" fill-rule="evenodd" clip-rule="evenodd" d="M17.5 2.91675C9.44273 2.91675 2.91669 9.44279 2.91669 17.5001C2.91669 23.9532 7.09117 29.4037 12.888 31.336C13.6172 31.4636 13.8906 31.0261 13.8906 30.6433C13.8906 30.297 13.8724 29.1485 13.8724 27.9272C10.2084 28.6016 9.26044 27.0339 8.96877 26.2136C8.80471 25.7944 8.09377 24.5001 7.47398 24.1537C6.96356 23.8803 6.2344 23.2058 7.45575 23.1876C8.60419 23.1694 9.4245 24.2449 9.69794 24.6824C11.0104 26.8881 13.1068 26.2683 13.9453 25.8855C14.0729 24.9376 14.4557 24.2996 14.875 23.935C11.6302 23.5704 8.2396 22.3126 8.2396 16.7345C8.2396 15.1485 8.80471 13.836 9.7344 12.8152C9.58856 12.4506 9.07815 10.9558 9.88023 8.9506C9.88023 8.9506 11.1016 8.56779 13.8906 10.4454C15.0573 10.1173 16.2969 9.95321 17.5365 9.95321C18.7761 9.95321 20.0156 10.1173 21.1823 10.4454C23.9714 8.54956 25.1927 8.9506 25.1927 8.9506C25.9948 10.9558 25.4844 12.4506 25.3386 12.8152C26.2682 13.836 26.8334 15.1303 26.8334 16.7345C26.8334 22.3308 23.4245 23.5704 20.1797 23.935C20.7084 24.3907 21.1641 25.2657 21.1641 26.6329C21.1641 28.5834 21.1459 30.1511 21.1459 30.6433C21.1459 31.0261 21.4193 31.4819 22.1485 31.336C25.0435 30.3587 27.5592 28.4981 29.3414 26.0161C31.1236 23.5341 32.0826 20.5557 32.0834 17.5001C32.0834 9.44279 25.5573 2.91675 17.5 2.91675Z" fill="#ABABAD"/>
</g>
</svg>
