<svg width="53" height="53" viewBox="0 0 53 53" fill="none" xmlns="http://www.w3.org/2000/svg">
<g id="Messenger Fill">
<path id="Vector" fill-rule="evenodd" clip-rule="evenodd" d="M26.0459 4.34033C13.8212 4.34033 4.34045 13.2956 4.34045 25.3939C4.34045 31.7216 6.93473 37.1879 11.1554 40.9629C11.5063 41.2805 11.7208 41.7195 11.7375 42.1985L11.8572 46.0616C11.8658 46.3457 11.9441 46.6232 12.0852 46.8699C12.2264 47.1165 12.426 47.3247 12.6665 47.476C12.9071 47.6273 13.1811 47.7171 13.4645 47.7376C13.748 47.758 14.0321 47.7085 14.2918 47.5933L18.6007 45.6941C18.9682 45.5345 19.3756 45.5029 19.7581 45.606C21.7371 46.1498 23.8441 46.4441 26.0393 46.4441C38.264 46.4441 47.7447 37.4905 47.7447 25.3922C47.7447 13.2956 38.2656 4.34033 26.0459 4.34033ZM37.4424 20.7874L32.0078 29.4067C31.8032 29.7311 31.5337 30.0097 31.2162 30.2249C30.8987 30.44 30.5401 30.587 30.1629 30.6567C29.7858 30.7264 29.3983 30.7172 29.0249 30.6297C28.6515 30.5422 28.3002 30.3784 27.9933 30.1484L23.6695 26.9089C23.4769 26.765 23.243 26.6873 23.0026 26.6873C22.7623 26.6873 22.5283 26.765 22.3358 26.9089L16.502 31.3374C15.7287 31.9278 14.7059 30.9949 15.2248 30.1733L20.6595 21.554C20.864 21.2296 21.1335 20.951 21.451 20.7359C21.7685 20.5207 22.1271 20.3737 22.5043 20.304C22.8814 20.2343 23.2689 20.2435 23.6423 20.331C24.0157 20.4185 24.367 20.5824 24.6739 20.8123L28.9977 24.0519C29.1903 24.1957 29.4242 24.2734 29.6646 24.2734C29.905 24.2734 30.1389 24.1957 30.3315 24.0519L36.1653 19.6233C36.9469 19.0246 37.9696 19.9575 37.4424 20.7874Z" fill="#ABABAD"/>
</g>
</svg>
