<svg width="1440" height="540" viewBox="0 0 1440 540" fill="none" xmlns="http://www.w3.org/2000/svg">
<rect x="180" y="272" width="72" height="72" rx="10" fill="#2D2E32"/>
<path d="M210.285 330.336C214.283 330.336 217.508 327.111 217.508 323.113V315.891H210.285C206.288 315.891 203.062 319.116 203.062 323.113C203.062 327.111 206.288 330.336 210.285 330.336ZM203.062 308.668C203.062 304.67 206.288 301.445 210.285 301.445H217.508V315.891H210.285C206.288 315.891 203.062 312.666 203.062 308.668ZM203.062 294.223C203.062 290.225 206.288 287 210.285 287H217.508V301.445H210.285C206.288 301.445 203.062 298.22 203.062 294.223ZM217.508 287H224.73C228.728 287 231.953 290.225 231.953 294.223C231.953 298.22 228.728 301.445 224.73 301.445H217.508V287ZM231.953 308.668C231.953 312.666 228.728 315.891 224.73 315.891C220.733 315.891 217.508 312.666 217.508 308.668C217.508 304.67 220.733 301.445 224.73 301.445C228.728 301.445 231.953 304.67 231.953 308.668Z" fill="#ABABAD"/>
<rect x="75" y="86" width="56" height="56" rx="10" fill="#2D2E32"/>
<rect x="406" y="143" width="54" height="54" rx="9" stroke="#2D2E32" stroke-width="2"/>
<rect x="76" y="485" width="54" height="54" rx="9" stroke="#2D2E32" stroke-width="2"/>
<rect x="1218" y="460" width="48" height="48" rx="10" fill="#2D2E32"/>
<rect x="1418" y="325" width="48" height="48" rx="10" fill="#ABABAD"/>
<rect x="-25" y="315" width="56" height="56" rx="10" fill="#ABABAD"/>
<rect x="1320" y="143" width="46" height="46" rx="9" stroke="#ABABAD" stroke-width="2"/>
<rect x="744" y="421" width="46" height="46" rx="9" stroke="#ABABAD" stroke-width="2"/>
<rect x="969" y="95" width="46" height="46" rx="9" stroke="#2D2E32" stroke-width="2"/>
<rect x="518" y="369" width="64" height="64" rx="10" fill="#2D2E32"/>
<path d="M564.662 384.92C564.144 386.163 563.48 387.341 562.686 388.428C559.204 384.948 554.482 382.993 549.559 382.992C539.378 382.992 531 391.378 531 401.57C531 404.087 531.511 406.577 532.502 408.891C533.493 411.205 534.943 413.293 536.765 415.029L537.45 415.636C540.795 418.457 545.029 420.005 549.405 420.007C559.085 420.007 567.222 412.422 567.911 402.755C568.417 398.023 567.029 392.038 564.662 384.92ZM539.402 415.135C539.253 415.319 539.065 415.467 538.852 415.568C538.638 415.67 538.405 415.723 538.168 415.723C537.296 415.723 536.582 415.005 536.582 414.133C536.582 413.26 537.3 412.542 538.168 412.542C538.53 412.542 538.886 412.668 539.166 412.899C539.846 413.448 539.952 414.455 539.402 415.135ZM564.585 409.574C560.005 415.68 550.224 413.622 543.953 413.916C543.953 413.916 542.839 413.983 541.721 414.166C541.721 414.166 542.14 413.988 542.685 413.781C547.086 412.248 549.169 411.95 551.844 410.576C556.882 408.013 561.861 402.403 562.898 396.567C560.979 402.182 555.165 407.005 549.868 408.967C546.238 410.307 539.682 411.608 539.682 411.608L539.417 411.468C534.953 409.295 534.818 399.623 542.931 396.5C546.484 395.131 549.882 395.883 553.719 394.967C557.817 393.994 562.556 390.919 564.484 386.91C566.643 393.324 569.242 403.367 564.585 409.574H564.585Z" fill="#ABABAD"/>
<rect x="968" y="272" width="64" height="64" rx="10" fill="#2D2E32"/>
<path d="M1010.59 318.696C1011.51 320.172 1012.7 321.257 1014.81 321.257C1016.59 321.257 1017.72 320.384 1017.72 319.177C1017.72 317.731 1016.55 317.219 1014.6 316.377L1013.53 315.925C1010.45 314.629 1008.4 313.004 1008.4 309.571C1008.4 306.408 1010.84 304 1014.66 304C1017.38 304 1019.34 304.933 1020.74 307.377L1017.41 309.485C1016.68 308.189 1015.89 307.678 1014.66 307.678C1013.41 307.678 1012.61 308.462 1012.61 309.485C1012.61 310.75 1013.41 311.263 1015.24 312.046L1016.31 312.498C1019.95 314.034 1022 315.601 1022 319.123C1022 322.92 1018.97 325 1014.91 325C1010.94 325 1008.37 323.134 1007.12 320.687L1010.59 318.696ZM995.482 319.062C996.154 320.237 996.765 321.231 998.235 321.231C999.64 321.231 1000.53 320.689 1000.53 318.581V304.241H1004.8V318.638C1004.8 323.005 1002.21 324.992 998.417 324.992C994.992 324.992 993.009 323.245 992 321.14L995.482 319.062Z" fill="#ABABAD"/>
<rect x="1081" width="56" height="56" rx="10" fill="#2D2E32"/>
<path d="M1122.47 26.7529L1110.25 14.5281C1109.54 13.824 1108.4 13.824 1107.7 14.5281L1105.16 17.067L1108.38 20.2872C1109.13 20.0344 1109.98 20.2039 1110.58 20.8005C1111.18 21.4008 1111.35 22.2662 1111.09 23.0173L1114.19 26.121C1114.94 25.8622 1115.81 26.0294 1116.41 26.63C1117.25 27.468 1117.25 28.826 1116.41 29.6642C1115.57 30.5027 1114.21 30.5027 1113.38 29.6642C1112.74 29.0334 1112.59 28.1073 1112.91 27.3307L1110.01 24.4362L1110.01 32.0531C1110.22 32.1543 1110.41 32.2893 1110.58 32.4589C1111.42 33.2968 1111.42 34.6544 1110.58 35.4938C1109.74 36.3316 1108.38 36.3316 1107.55 35.4938C1106.71 34.6545 1106.71 33.2969 1107.55 32.4589C1107.75 32.2521 1107.99 32.0956 1108.25 31.9907V24.303C1107.99 24.1985 1107.75 24.0432 1107.55 23.8348C1106.91 23.2004 1106.76 22.2687 1107.08 21.4891L1103.91 18.3141L1095.53 26.6964C1094.82 27.401 1094.82 28.5429 1095.53 29.2471L1107.75 41.4719C1108.46 42.176 1109.6 42.176 1110.3 41.4719L1122.47 29.3049C1123.18 28.6004 1123.18 27.4582 1122.47 26.7539" fill="#ABABAD"/>
<rect x="630" width="64" height="64" rx="10" fill="#2D2E32"/>
<path d="M653.891 22.3902H661.516V17H648L648.129 18.4461L649.454 33.3001H661.516V27.9099H654.383L653.891 22.3902ZM655.106 35.9953H649.695L650.45 44.4588L661.491 47.5238L661.516 47.517V41.9089L661.493 41.9151L655.489 40.2942L655.106 35.9953Z" fill="#ABABAD"/>
<path d="M661.498 33.3001H668.135L667.509 40.2908L661.497 41.9135V47.5212L672.548 44.4588L672.629 43.5481L673.896 29.3573L674.027 27.9099H661.498V33.3001ZM661.498 22.3771V22.3902H674.517L674.626 21.1787L674.871 18.4461L675 17H661.498V22.3772V22.3771Z" fill="#ABABAD"/>
<rect x="743" y="198" width="48" height="48" rx="10" fill="#2D2E32"/>
<path d="M757.732 219.221L758.095 223.282H767.185V219.221H757.732ZM757 211L757.369 215.062H767.185V211H757ZM767.185 229.769L767.167 229.774L762.643 228.552L762.354 225.313H758.277L758.846 231.69L767.166 234L767.185 233.995V229.769Z" fill="#ABABAD"/>
<path d="M776.612 219.221L777.345 211H767.171V215.062H772.894L772.524 219.221H767.171V223.282H772.172L771.7 228.55L767.17 229.773V233.998L775.497 231.691L775.558 231.004L776.513 220.311L776.612 219.221Z" fill="#ABABAD"/>
</svg>
