<svg width="35" height="35" viewBox="0 0 35 35" fill="none" xmlns="http://www.w3.org/2000/svg">
<g id="Slack Fill">
<g id="Vector">
<path d="M13.6109 2.91675C12.0001 2.91675 10.6944 4.22533 10.6944 5.83908C10.694 6.22246 10.7691 6.60216 10.9155 6.95651C11.0619 7.31085 11.2766 7.6329 11.5474 7.90427C11.8182 8.17563 12.1398 8.39099 12.4939 8.53806C12.8479 8.68513 13.2275 8.76102 13.6109 8.76141H16.5278V5.83908C16.5285 5.06476 16.2215 4.32189 15.6745 3.77386C15.1275 3.22583 14.3852 2.91752 13.6109 2.91675ZM13.6109 10.7096H5.83313C4.22231 10.7096 2.91666 12.0182 2.91666 13.6324C2.91666 15.2462 4.22231 16.5548 5.83313 16.5548H13.6114C15.2217 16.5548 16.5278 15.2462 16.5278 13.6324C16.5278 12.0182 15.2217 10.7096 13.6109 10.7096Z" fill="#ABABAD"/>
<path d="M32.0833 13.6324C32.0833 12.0182 30.7772 10.7096 29.1664 10.7096C27.5555 10.7096 26.2499 12.0182 26.2499 13.6324V16.5548H29.1664C29.9407 16.554 30.683 16.2457 31.23 15.6977C31.777 15.1496 32.084 14.4068 32.0833 13.6324ZM24.3056 13.6324V5.83908C24.3062 5.06476 23.9993 4.32189 23.4523 3.77386C22.9052 3.22583 22.1629 2.91752 21.3886 2.91675C19.7778 2.91675 18.4721 4.22533 18.4721 5.83908V13.632C18.4721 15.2467 19.7778 16.5553 21.3886 16.5553C22.1629 16.5545 22.9052 16.2462 23.4523 15.6982C23.9993 15.1501 24.3062 14.4068 24.3056 13.6324Z" fill="#ABABAD"/>
<path d="M21.3886 32.141C22.1629 32.1403 22.9052 31.8319 23.4523 31.2839C23.9993 30.7359 24.3062 29.993 24.3056 29.2187C24.3062 28.4444 23.9993 27.7015 23.4523 27.1535C22.9052 26.6055 22.1629 26.2971 21.3886 26.2964H18.4721V29.2187C18.4721 30.8324 19.7778 32.141 21.3886 32.141ZM21.3886 24.3481H29.1669C30.7772 24.3481 32.0833 23.0396 32.0833 21.4253C32.084 20.651 31.777 19.9081 31.23 19.3601C30.683 18.8121 29.9407 18.5038 29.1664 18.503H21.3886C19.7778 18.503 18.4721 19.8116 18.4721 21.4253C18.4718 21.8087 18.5469 22.1884 18.6933 22.5428C18.8396 22.8971 19.0543 23.2192 19.3251 23.4905C19.596 23.7619 19.9176 23.9772 20.2716 24.1243C20.6257 24.2714 21.0052 24.3478 21.3886 24.3481Z" fill="#ABABAD"/>
<path d="M2.91666 21.4253C2.91627 21.8087 2.9914 22.1884 3.13776 22.5428C3.28412 22.8971 3.49884 23.2192 3.76966 23.4905C4.04048 23.7619 4.36209 23.9772 4.71615 24.1243C5.0702 24.2714 5.44975 24.3473 5.83313 24.3477C6.60745 24.3469 7.34975 24.0386 7.89677 23.4905C8.44379 22.9425 8.75074 22.1996 8.75009 21.4253V18.503H5.83313C4.22231 18.503 2.91666 19.8116 2.91666 21.4253ZM10.6944 21.4253V29.2182C10.6944 30.8325 12.0001 32.141 13.6109 32.141C14.3852 32.1403 15.1275 31.8319 15.6745 31.2839C16.2215 30.7359 16.5285 29.993 16.5278 29.2187V21.4253C16.5282 21.0419 16.4531 20.6622 16.3067 20.3078C16.1603 19.9534 15.9455 19.6313 15.6747 19.36C15.4038 19.0886 15.0821 18.8732 14.728 18.7262C14.3739 18.5792 13.9943 18.5033 13.6109 18.503C12.0001 18.503 10.6944 19.8116 10.6944 21.4253Z" fill="#ABABAD"/>
</g>
</g>
</svg>
