<svg width="36" height="35" viewBox="0 0 36 35" fill="none" xmlns="http://www.w3.org/2000/svg">
<g id="Telegram Fill">
<path id="Subtract" fill-rule="evenodd" clip-rule="evenodd" d="M33 17.5001C33 25.5542 26.2843 32.0834 18 32.0834C9.71573 32.0834 3 25.5542 3 17.5001C3 9.44593 9.71573 2.91675 18 2.91675C26.2843 2.91675 33 9.44593 33 17.5001ZM18.5375 13.6828C17.0785 14.2728 14.1627 15.4939 9.78985 17.3461C9.07978 17.6207 8.70781 17.8892 8.67394 18.1518C8.61672 18.5957 9.18838 18.7704 9.96683 19.0084C10.0727 19.0408 10.1824 19.0743 10.2949 19.1099C11.0608 19.3519 12.091 19.6351 12.6266 19.6463C13.1124 19.6565 13.6546 19.4618 14.2533 19.0621C18.3389 16.3808 20.448 15.0255 20.5804 14.9963C20.6738 14.9757 20.8032 14.9498 20.8909 15.0256C20.9786 15.1014 20.97 15.2449 20.9607 15.2834C20.9041 15.5181 18.6601 17.5464 17.4989 18.596C17.1369 18.9232 16.8801 19.1553 16.8276 19.2083C16.71 19.3271 16.5901 19.4394 16.475 19.5474C15.7634 20.2142 15.2299 20.7143 16.5045 21.5309C17.117 21.9233 17.6072 22.2479 18.0962 22.5716C18.6302 22.9252 19.1628 23.2778 19.852 23.7171C20.0276 23.8289 20.1953 23.9452 20.3586 24.0584C20.9801 24.4891 21.5384 24.8761 22.2282 24.8144C22.629 24.7785 23.0431 24.4121 23.2533 23.3193C23.7503 20.7365 24.727 15.1406 24.9528 12.8346C24.9725 12.6326 24.9477 12.374 24.9277 12.2605C24.9077 12.147 24.8659 11.9853 24.7142 11.8656C24.5345 11.7238 24.257 11.6939 24.1329 11.6959C23.5688 11.7057 22.7032 11.9983 18.5375 13.6828Z" fill="#ABABAD"/>
</g>
</svg>
